<mxfile host="app.diagrams.net" modified="2020-09-23T12:00:50.596Z" agent="5.0 (Windows NT 6.3; WOW64) AppleWebKit/537.36 (KHTML, like Gecko) Chrome/84.0.4147.135 YaBrowser/20.8.3.112 Yowser/2.5 Safari/537.36" etag="orwHHgCTfCCRY9DfxeN-" version="13.7.4" type="github">
  <diagram id="gF865do_rcSWTQIJVq1O" name="Page-1">
    <mxGraphModel dx="965" dy="524" grid="1" gridSize="10" guides="1" tooltips="1" connect="1" arrows="1" fold="1" page="1" pageScale="1" pageWidth="827" pageHeight="1169" math="0" shadow="0">
      <root>
        <mxCell id="0" />
        <mxCell id="1" parent="0" />
        <mxCell id="wcVJ78FK4K-sEXduPnJ1-1" value="начало" style="ellipse;whiteSpace=wrap;html=1;" parent="1" vertex="1">
          <mxGeometry x="330" y="60" width="80" height="80" as="geometry" />
        </mxCell>
        <mxCell id="wcVJ78FK4K-sEXduPnJ1-2" value="" style="endArrow=classic;html=1;" parent="1" target="wcVJ78FK4K-sEXduPnJ1-3" edge="1">
          <mxGeometry width="50" height="50" relative="1" as="geometry">
            <mxPoint x="370" y="140" as="sourcePoint" />
            <mxPoint x="370" y="170" as="targetPoint" />
          </mxGeometry>
        </mxCell>
        <mxCell id="wcVJ78FK4K-sEXduPnJ1-3" value="Объявление A, B, C" style="rounded=0;whiteSpace=wrap;html=1;" parent="1" vertex="1">
          <mxGeometry x="310" y="160" width="120" height="60" as="geometry" />
        </mxCell>
        <mxCell id="wcVJ78FK4K-sEXduPnJ1-4" value="" style="endArrow=classic;html=1;exitX=0.5;exitY=1;exitDx=0;exitDy=0;" parent="1" source="wcVJ78FK4K-sEXduPnJ1-3" target="wcVJ78FK4K-sEXduPnJ1-5" edge="1">
          <mxGeometry width="50" height="50" relative="1" as="geometry">
            <mxPoint x="390" y="270" as="sourcePoint" />
            <mxPoint x="370" y="270" as="targetPoint" />
          </mxGeometry>
        </mxCell>
        <mxCell id="wcVJ78FK4K-sEXduPnJ1-5" value="A &amp;gt; B?" style="rhombus;whiteSpace=wrap;html=1;" parent="1" vertex="1">
          <mxGeometry x="330" y="250" width="80" height="80" as="geometry" />
        </mxCell>
        <mxCell id="wcVJ78FK4K-sEXduPnJ1-7" value="true" style="text;html=1;strokeColor=none;fillColor=none;align=center;verticalAlign=middle;whiteSpace=wrap;rounded=0;" parent="1" vertex="1">
          <mxGeometry x="280" y="260" width="40" height="20" as="geometry" />
        </mxCell>
        <mxCell id="wcVJ78FK4K-sEXduPnJ1-8" value="false" style="text;html=1;strokeColor=none;fillColor=none;align=center;verticalAlign=middle;whiteSpace=wrap;rounded=0;" parent="1" vertex="1">
          <mxGeometry x="430" y="260" width="40" height="20" as="geometry" />
        </mxCell>
        <mxCell id="wcVJ78FK4K-sEXduPnJ1-9" value="" style="endArrow=none;html=1;exitX=0;exitY=0.5;exitDx=0;exitDy=0;" parent="1" source="wcVJ78FK4K-sEXduPnJ1-5" edge="1">
          <mxGeometry width="50" height="50" relative="1" as="geometry">
            <mxPoint x="390" y="270" as="sourcePoint" />
            <mxPoint x="210" y="290" as="targetPoint" />
          </mxGeometry>
        </mxCell>
        <mxCell id="wcVJ78FK4K-sEXduPnJ1-11" value="" style="endArrow=classic;html=1;" parent="1" edge="1">
          <mxGeometry width="50" height="50" relative="1" as="geometry">
            <mxPoint x="209.5" y="290" as="sourcePoint" />
            <mxPoint x="209.5" y="340" as="targetPoint" />
          </mxGeometry>
        </mxCell>
        <mxCell id="wcVJ78FK4K-sEXduPnJ1-12" value="A &amp;gt; C?" style="rhombus;whiteSpace=wrap;html=1;" parent="1" vertex="1">
          <mxGeometry x="170" y="340" width="80" height="80" as="geometry" />
        </mxCell>
        <mxCell id="wcVJ78FK4K-sEXduPnJ1-14" value="true" style="text;html=1;strokeColor=none;fillColor=none;align=center;verticalAlign=middle;whiteSpace=wrap;rounded=0;" parent="1" vertex="1">
          <mxGeometry x="120" y="350" width="40" height="20" as="geometry" />
        </mxCell>
        <mxCell id="wcVJ78FK4K-sEXduPnJ1-15" value="" style="endArrow=none;html=1;exitX=0;exitY=0.5;exitDx=0;exitDy=0;" parent="1" edge="1">
          <mxGeometry width="50" height="50" relative="1" as="geometry">
            <mxPoint x="170" y="380" as="sourcePoint" />
            <mxPoint x="120" y="380" as="targetPoint" />
          </mxGeometry>
        </mxCell>
        <mxCell id="wcVJ78FK4K-sEXduPnJ1-16" value="" style="endArrow=classic;html=1;" parent="1" edge="1">
          <mxGeometry width="50" height="50" relative="1" as="geometry">
            <mxPoint x="119.5" y="380" as="sourcePoint" />
            <mxPoint x="119.5" y="430" as="targetPoint" />
          </mxGeometry>
        </mxCell>
        <mxCell id="wcVJ78FK4K-sEXduPnJ1-17" value="" style="endArrow=classic;html=1;" parent="1" edge="1">
          <mxGeometry width="50" height="50" relative="1" as="geometry">
            <mxPoint x="549.71" y="290" as="sourcePoint" />
            <mxPoint x="549.71" y="340" as="targetPoint" />
          </mxGeometry>
        </mxCell>
        <mxCell id="wcVJ78FK4K-sEXduPnJ1-20" value="false" style="text;html=1;strokeColor=none;fillColor=none;align=center;verticalAlign=middle;whiteSpace=wrap;rounded=0;" parent="1" vertex="1">
          <mxGeometry x="270" y="350" width="40" height="20" as="geometry" />
        </mxCell>
        <mxCell id="wcVJ78FK4K-sEXduPnJ1-21" value="" style="endArrow=none;html=1;" parent="1" edge="1">
          <mxGeometry width="50" height="50" relative="1" as="geometry">
            <mxPoint x="310" y="380" as="sourcePoint" />
            <mxPoint x="250" y="379.5" as="targetPoint" />
          </mxGeometry>
        </mxCell>
        <mxCell id="wcVJ78FK4K-sEXduPnJ1-22" value="" style="endArrow=classic;html=1;" parent="1" edge="1">
          <mxGeometry width="50" height="50" relative="1" as="geometry">
            <mxPoint x="309.5" y="380" as="sourcePoint" />
            <mxPoint x="309.5" y="430" as="targetPoint" />
          </mxGeometry>
        </mxCell>
        <mxCell id="wcVJ78FK4K-sEXduPnJ1-24" value="" style="endArrow=none;html=1;" parent="1" edge="1">
          <mxGeometry width="50" height="50" relative="1" as="geometry">
            <mxPoint x="550" y="290" as="sourcePoint" />
            <mxPoint x="409" y="289.5" as="targetPoint" />
          </mxGeometry>
        </mxCell>
        <mxCell id="wcVJ78FK4K-sEXduPnJ1-61" value="В &amp;gt; C?" style="rhombus;whiteSpace=wrap;html=1;" parent="1" vertex="1">
          <mxGeometry x="510" y="340" width="80" height="80" as="geometry" />
        </mxCell>
        <mxCell id="wcVJ78FK4K-sEXduPnJ1-62" value="true" style="text;html=1;strokeColor=none;fillColor=none;align=center;verticalAlign=middle;whiteSpace=wrap;rounded=0;" parent="1" vertex="1">
          <mxGeometry x="460" y="350" width="40" height="20" as="geometry" />
        </mxCell>
        <mxCell id="wcVJ78FK4K-sEXduPnJ1-63" value="" style="endArrow=none;html=1;exitX=0;exitY=0.5;exitDx=0;exitDy=0;" parent="1" edge="1">
          <mxGeometry width="50" height="50" relative="1" as="geometry">
            <mxPoint x="510" y="380" as="sourcePoint" />
            <mxPoint x="450" y="380" as="targetPoint" />
          </mxGeometry>
        </mxCell>
        <mxCell id="wcVJ78FK4K-sEXduPnJ1-64" value="" style="endArrow=classic;html=1;" parent="1" edge="1">
          <mxGeometry width="50" height="50" relative="1" as="geometry">
            <mxPoint x="449.5" y="380" as="sourcePoint" />
            <mxPoint x="449.5" y="430" as="targetPoint" />
          </mxGeometry>
        </mxCell>
        <mxCell id="wcVJ78FK4K-sEXduPnJ1-66" value="false" style="text;html=1;strokeColor=none;fillColor=none;align=center;verticalAlign=middle;whiteSpace=wrap;rounded=0;" parent="1" vertex="1">
          <mxGeometry x="610" y="350" width="40" height="20" as="geometry" />
        </mxCell>
        <mxCell id="wcVJ78FK4K-sEXduPnJ1-67" value="" style="endArrow=none;html=1;" parent="1" edge="1">
          <mxGeometry width="50" height="50" relative="1" as="geometry">
            <mxPoint x="650" y="380" as="sourcePoint" />
            <mxPoint x="590" y="379.5" as="targetPoint" />
          </mxGeometry>
        </mxCell>
        <mxCell id="wcVJ78FK4K-sEXduPnJ1-68" value="" style="endArrow=classic;html=1;" parent="1" edge="1">
          <mxGeometry width="50" height="50" relative="1" as="geometry">
            <mxPoint x="649.5" y="380" as="sourcePoint" />
            <mxPoint x="649.5" y="430" as="targetPoint" />
          </mxGeometry>
        </mxCell>
        <mxCell id="wcVJ78FK4K-sEXduPnJ1-86" value="Напечатать что А - наибольшее" style="rounded=0;whiteSpace=wrap;html=1;" parent="1" vertex="1">
          <mxGeometry x="60" y="430" width="120" height="60" as="geometry" />
        </mxCell>
        <mxCell id="wcVJ78FK4K-sEXduPnJ1-87" value="Напечатать что С - наибольшее" style="rounded=0;whiteSpace=wrap;html=1;" parent="1" vertex="1">
          <mxGeometry x="250" y="430" width="120" height="60" as="geometry" />
        </mxCell>
        <mxCell id="wcVJ78FK4K-sEXduPnJ1-91" value="Напечатать что В наибольшее" style="rounded=0;whiteSpace=wrap;html=1;" parent="1" vertex="1">
          <mxGeometry x="390" y="430" width="120" height="60" as="geometry" />
        </mxCell>
        <mxCell id="wcVJ78FK4K-sEXduPnJ1-92" value="Напечатать что С - наибольшее" style="rounded=0;whiteSpace=wrap;html=1;" parent="1" vertex="1">
          <mxGeometry x="590" y="430" width="120" height="60" as="geometry" />
        </mxCell>
        <mxCell id="8GMD8pFSs-gsdj6G2YKa-2" value="" style="endArrow=none;html=1;" edge="1" parent="1">
          <mxGeometry width="50" height="50" relative="1" as="geometry">
            <mxPoint x="120" y="540.42" as="sourcePoint" />
            <mxPoint x="650" y="540" as="targetPoint" />
          </mxGeometry>
        </mxCell>
        <mxCell id="8GMD8pFSs-gsdj6G2YKa-14" value="конец" style="ellipse;whiteSpace=wrap;html=1;" vertex="1" parent="1">
          <mxGeometry x="340" y="570.42" width="80" height="80" as="geometry" />
        </mxCell>
        <mxCell id="8GMD8pFSs-gsdj6G2YKa-15" value="" style="endArrow=classic;html=1;" edge="1" parent="1">
          <mxGeometry width="50" height="50" relative="1" as="geometry">
            <mxPoint x="380" y="540.42" as="sourcePoint" />
            <mxPoint x="380" y="570.42" as="targetPoint" />
          </mxGeometry>
        </mxCell>
        <mxCell id="8GMD8pFSs-gsdj6G2YKa-16" value="" style="endArrow=none;html=1;entryX=0.42;entryY=0.993;entryDx=0;entryDy=0;entryPerimeter=0;" edge="1" parent="1">
          <mxGeometry width="50" height="50" relative="1" as="geometry">
            <mxPoint x="120" y="540.42" as="sourcePoint" />
            <mxPoint x="120.40000000000009" y="489.9999999999999" as="targetPoint" />
          </mxGeometry>
        </mxCell>
        <mxCell id="8GMD8pFSs-gsdj6G2YKa-17" value="" style="endArrow=none;html=1;entryX=0.42;entryY=0.993;entryDx=0;entryDy=0;entryPerimeter=0;" edge="1" parent="1">
          <mxGeometry width="50" height="50" relative="1" as="geometry">
            <mxPoint x="310" y="540.42" as="sourcePoint" />
            <mxPoint x="310.39999999999986" y="489.99999999999994" as="targetPoint" />
          </mxGeometry>
        </mxCell>
        <mxCell id="8GMD8pFSs-gsdj6G2YKa-20" value="" style="endArrow=none;html=1;entryX=0.42;entryY=0.993;entryDx=0;entryDy=0;entryPerimeter=0;" edge="1" parent="1">
          <mxGeometry width="50" height="50" relative="1" as="geometry">
            <mxPoint x="449.71" y="540.42" as="sourcePoint" />
            <mxPoint x="450.10999999999984" y="489.99999999999994" as="targetPoint" />
          </mxGeometry>
        </mxCell>
        <mxCell id="8GMD8pFSs-gsdj6G2YKa-21" value="" style="endArrow=none;html=1;entryX=0.42;entryY=0.993;entryDx=0;entryDy=0;entryPerimeter=0;" edge="1" parent="1">
          <mxGeometry width="50" height="50" relative="1" as="geometry">
            <mxPoint x="650" y="540.42" as="sourcePoint" />
            <mxPoint x="650.3999999999999" y="489.99999999999994" as="targetPoint" />
          </mxGeometry>
        </mxCell>
      </root>
    </mxGraphModel>
  </diagram>
</mxfile>
